<?xml version="1.0" encoding="UTF-8" standalone="no"?>
<!DOCTYPE svg PUBLIC "-//W3C//DTD SVG 1.1//EN" "http://www.w3.org/Graphics/SVG/1.1/DTD/svg11.dtd">
<svg xmlns="http://www.w3.org/2000/svg" version="1.1" viewBox="0.00 0.00 1423.00 1423.00">
<g stroke-width="2.00" fill="none" stroke-linecap="butt">
<path stroke="#8c8c8c" vector-effect="non-scaling-stroke" d="
  M 1172.30 152.61
  C 1099.83 115.60 1027.64 77.99 955.31 40.71
  Q 952.57 39.29 950.58 36.99
  C 949.19 35.39 948.06 34.37 946.02 35.09
  Q 769.83 96.85 593.64 158.61
  C 590.45 159.73 588.73 158.04 586.10 161.34
  Q 507.78 259.29 429.30 357.11
  C 426.74 360.31 428.13 363.92 429.43 367.79
  Q 493.87 559.41 558.11 751.09
  C 559.57 755.44 559.77 757.02 563.76 758.71
  Q 747.17 836.43 930.59 914.13
  C 933.41 915.33 936.08 916.98 938.89 918.39
  C 945.25 921.57 947.16 916.43 951.26 913.27
  Q 1066.32 824.57 1181.37 735.85
  C 1186.21 732.11 1185.37 727.01 1185.27 720.50
  Q 1180.83 442.27 1177.02 164.03
  C 1176.94 157.75 1179.31 156.18 1172.30 152.61"
/>
<path stroke="#8c8c8c" vector-effect="non-scaling-stroke" d="
  M 543.07 874.58
  Q 544.41 873.16 543.68 874.97
  L 533.92 898.88
  A 2.74 2.73 22.3 0 0 535.41 902.43
  L 536.22 902.77
  Q 539.60 904.17 540.98 900.78
  L 577.93 810.38
  A 0.34 0.33 -41.9 0 1 578.56 810.41
  L 613.40 933.51
  A 2.07 2.04 -2.8 0 0 615.04 934.97
  Q 617.00 935.30 618.92 936.22
  C 625.46 939.35 632.35 941.91 639.06 944.66
  Q 652.87 950.32 655.53 951.13
  C 693.09 962.50 730.88 934.07 730.30 894.77
  C 729.95 871.63 716.05 850.93 694.43 842.10
  Q 680.04 836.23 665.66 830.33
  C 664.24 829.75 662.40 829.37 660.80 828.56
  C 658.75 827.53 656.16 827.14 655.21 829.50
  Q 636.89 874.94 618.05 920.34
  Q 617.69 921.22 617.43 920.30
  L 582.61 796.87
  Q 582.45 796.28 581.87 796.10
  L 577.74 794.75
  Q 577.23 794.58 576.80 794.26
  C 574.74 792.72 572.19 792.47 571.03 795.27
  Q 559.08 824.04 547.36 852.92
  Q 543.41 862.67 540.22 866.79
  C 530.26 879.64 511.98 885.17 496.54 878.70
  C 482.33 872.75 473.49 860.02 472.66 844.81
  Q 472.25 837.30 474.73 831.25
  Q 487.75 799.38 500.78 767.51
  C 502.06 764.38 500.89 762.85 497.73 761.99
  C 496.16 761.57 494.67 760.57 493.43 760.06
  Q 461.25 746.89 429.59 734.00
  A 3.69 3.68 22.2 0 0 424.79 736.01
  L 383.72 836.48
  Q 382.34 839.86 385.71 841.27
  L 386.32 841.53
  A 2.91 2.90 -67.5 0 0 390.13 839.95
  L 409.37 792.90
  A 0.61 0.61 0.0 0 1 410.16 792.56
  L 454.55 810.69
  Q 458.02 812.10 459.26 808.57
  L 459.48 807.95
  A 3.02 3.02 0.0 0 0 457.76 804.15
  L 412.72 785.78
  A 0.39 0.39 0.0 0 1 412.50 785.27
  L 429.90 742.68
  A 0.67 0.66 22.1 0 1 430.77 742.32
  L 492.68 767.57
  A 0.21 0.20 22.6 0 1 492.79 767.83
  Q 481.08 796.62 469.39 825.29
  Q 461.84 843.84 468.92 860.78
  C 481.46 890.74 520.68 898.24 543.07 874.58"
/>
<path stroke="#8c8c8c" vector-effect="non-scaling-stroke" d="
  M 358.22 920.55
  A 0.34 0.34 0.0 0 1 357.77 920.10
  L 379.42 867.17
  A 3.00 3.00 0.0 0 0 377.62 863.20
  L 376.77 862.91
  Q 373.06 861.63 371.58 865.26
  L 326.19 976.35
  A 3.23 3.23 0.0 0 0 327.86 980.53
  L 328.67 980.90
  Q 332.30 982.53 333.80 978.84
  L 352.88 932.09
  A 2.05 2.04 -0.4 0 1 353.99 930.97
  L 364.37 926.65
  A 0.82 0.81 66.9 0 1 365.43 927.08
  Q 382.37 967.55 399.35 1008.02
  C 400.49 1010.75 402.43 1011.47 405.10 1011.99
  Q 405.65 1012.09 406.04 1011.69
  L 408.04 1009.59
  Q 408.48 1009.13 408.23 1008.55
  L 372.77 923.94
  A 0.65 0.65 0.0 0 1 373.12 923.09
  L 441.56 894.29
  Q 442.54 893.88 442.39 892.84
  Q 442.22 891.63 442.51 890.46
  Q 442.68 889.83 442.08 889.56
  L 437.73 887.53
  Q 437.23 887.30 436.73 887.51
  L 358.22 920.55"
/>
<path stroke="#8c8c8c" vector-effect="non-scaling-stroke" d="
  M 777.11 960.73
  Q 777.82 961.02 777.84 961.79
  L 778.94 999.54
  Q 779.05 1003.18 782.69 1003.08
  L 783.45 1003.06
  A 2.96 2.95 -1.6 0 0 786.33 1000.03
  L 782.96 878.69
  Q 782.95 878.17 782.47 877.97
  L 777.84 876.10
  A 0.68 0.68 0.0 0 0 777.11 876.24
  L 689.68 960.93
  A 2.69 2.68 44.4 0 0 689.72 964.83
  L 690.36 965.42
  Q 692.99 967.86 695.58 965.37
  L 722.86 939.14
  Q 723.27 938.75 723.79 938.96
  L 777.11 960.73"
/>
<path stroke="#8c8c8c" vector-effect="non-scaling-stroke" d="
  M 630.84 1012.06
  Q 630.82 1012.04 630.84 1012.02
  Q 636.66 1004.24 637.25 995.51
  Q 638.54 976.44 624.79 965.60
  Q 620.84 962.48 612.10 958.90
  Q 591.79 950.59 571.94 942.51
  A 3.61 3.60 -67.9 0 0 567.25 944.49
  L 552.44 980.71
  Q 551.37 983.33 551.56 980.51
  C 553.00 959.35 543.10 938.70 526.43 926.18
  C 505.53 910.47 477.44 909.09 455.09 922.72
  C 423.28 942.12 414.54 985.29 437.08 1015.34
  C 461.18 1047.49 509.32 1049.72 535.71 1019.22
  Q 537.69 1016.93 536.55 1019.73
  L 521.51 1056.40
  A 2.93 2.93 0.0 0 0 523.13 1060.23
  L 524.02 1060.59
  Q 527.82 1062.12 529.37 1058.33
  L 550.14 1007.38
  Q 550.35 1006.85 550.87 1007.07
  Q 567.46 1013.87 584.11 1020.66
  Q 595.49 1025.29 600.86 1025.84
  Q 612.21 1026.98 621.86 1020.50
  Q 624.78 1018.54 622.25 1020.99
  L 567.90 1073.64
  A 3.07 3.06 45.5 0 0 567.87 1078.02
  L 568.54 1078.69
  Q 571.34 1081.48 574.19 1078.74
  L 604.40 1049.67
  Q 604.77 1049.32 605.24 1049.51
  L 664.24 1073.61
  A 1.03 1.02 -79.9 0 1 664.88 1074.53
  L 666.10 1118.01
  Q 666.11 1118.46 666.49 1118.70
  Q 668.75 1120.18 671.43 1120.52
  Q 671.90 1120.59 672.30 1120.84
  Q 673.16 1121.39 674.10 1121.78
  Q 708.01 1135.84 742.04 1149.64
  Q 743.74 1150.33 745.53 1150.72
  Q 746.00 1150.82 746.37 1151.15
  C 750.18 1154.58 752.48 1151.98 753.99 1148.29
  Q 774.00 1099.28 793.83 1050.72
  Q 794.32 1049.52 794.68 1050.77
  Q 813.54 1117.62 832.37 1184.80
  C 833.06 1187.26 835.24 1188.18 837.65 1188.55
  C 839.06 1188.77 839.64 1189.56 840.74 1190.01
  Q 849.80 1193.78 882.99 1207.28
  Q 883.62 1207.54 885.22 1207.76
  Q 885.73 1207.83 886.15 1208.14
  Q 888.19 1209.69 890.64 1210.48
  A 0.93 0.92 -57.6 0 0 891.56 1210.27
  L 923.02 1180.03
  A 1.15 1.14 -55.4 0 1 924.24 1179.80
  L 982.97 1203.79
  A 1.06 1.06 0.0 0 1 983.63 1204.74
  L 984.87 1246.53
  Q 984.99 1250.38 988.84 1250.35
  L 989.77 1250.34
  A 3.02 3.01 -1.0 0 0 992.76 1247.25
  L 989.34 1113.56
  Q 989.32 1112.90 988.71 1112.66
  L 983.54 1110.62
  Q 983.07 1110.44 982.70 1110.79
  L 888.93 1201.67
  Q 888.51 1202.07 888.15 1201.61
  L 887.52 1200.80
  Q 887.18 1200.36 886.67 1200.15
  L 869.34 1193.11
  Q 868.61 1192.81 868.91 1192.08
  L 910.43 1090.43
  A 1.01 1.00 22.3 0 1 911.75 1089.88
  L 928.40 1096.75
  A 3.85 3.85 0.0 0 0 933.54 1094.37
  L 933.80 1093.55
  A 3.28 3.28 0.0 0 0 931.92 1089.52
  Q 910.76 1080.89 889.50 1072.23
  Q 889.46 1072.21 887.69 1071.62
  C 883.88 1070.34 880.79 1067.07 878.40 1072.91
  Q 858.15 1122.54 838.06 1171.71
  Q 837.65 1172.71 837.36 1171.67
  L 799.12 1036.02
  Q 798.97 1035.51 798.52 1035.22
  C 795.88 1033.51 792.58 1032.75 791.32 1035.83
  Q 769.45 1089.27 747.69 1142.64
  Q 747.42 1143.30 746.75 1143.03
  L 681.48 1116.36
  Q 680.97 1116.15 681.18 1115.64
  L 724.96 1008.48
  A 3.10 3.10 0.0 0 0 723.22 1004.42
  L 722.34 1004.07
  Q 718.72 1002.65 717.25 1006.25
  L 674.75 1110.33
  Q 673.86 1112.49 673.81 1110.16
  L 670.56 983.28
  Q 670.55 982.71 670.02 982.50
  L 664.82 980.38
  A 0.79 0.78 34.1 0 0 663.97 980.54
  L 631.33 1012.22
  Q 631.19 1012.35 631.04 1012.23
  L 630.84 1012.06"
/>
<path stroke="#8c8c8c" vector-effect="non-scaling-stroke" d="
  M 839.56 1018.67
  C 815.31 1009.03 802.28 981.61 810.26 956.65
  C 819.49 927.77 852.24 912.56 879.73 925.59
  C 896.23 933.41 907.14 948.88 909.00 967.24
  Q 909.74 974.56 908.11 981.30
  Q 907.45 984.05 910.26 984.37
  L 912.09 984.58
  Q 914.90 984.90 915.42 982.12
  C 919.45 960.87 910.60 938.43 893.54 925.49
  C 857.98 898.52 806.98 920.43 801.16 964.36
  C 796.70 998.06 823.23 1029.76 857.75 1029.56
  Q 887.99 1029.39 906.11 1004.80
  Q 908.25 1001.91 905.53 999.56
  L 905.13 999.22
  Q 902.41 996.87 900.46 999.89
  C 887.73 1019.73 861.62 1027.44 839.56 1018.67"
/>
<path stroke="#8c8c8c" vector-effect="non-scaling-stroke" d="
  M 978.19 961.97
  C 972.00 977.98 965.27 993.83 958.79 1009.73
  Q 948.24 1035.64 922.25 1042.52
  Q 908.04 1046.28 892.71 1040.42
  Q 889.77 1039.30 888.52 1042.19
  L 888.32 1042.65
  A 3.28 3.28 0.0 0 0 889.69 1046.79
  Q 891.83 1048.02 894.74 1048.77
  C 916.12 1054.22 936.71 1049.04 952.18 1033.85
  Q 959.75 1026.42 963.44 1017.44
  Q 974.18 991.26 984.88 965.06
  C 987.13 959.55 979.93 957.45 978.19 961.97"
/>
<path stroke="#8c8c8c" vector-effect="non-scaling-stroke" d="
  M 1029.93 1063.94
  Q 1030.67 1064.24 1030.69 1065.03
  L 1031.84 1103.00
  Q 1031.94 1106.43 1035.38 1106.34
  L 1036.36 1106.32
  Q 1039.14 1106.25 1039.07 1103.47
  L 1035.86 981.74
  Q 1035.85 981.38 1035.51 981.25
  L 1030.78 979.43
  Q 1030.15 979.19 1029.67 979.66
  L 943.16 1063.43
  Q 940.57 1065.94 943.05 1068.55
  L 943.58 1069.11
  A 2.89 2.89 0.0 0 0 947.67 1069.20
  L 975.37 1042.60
  A 1.47 1.46 -55.7 0 1 976.94 1042.30
  L 1029.93 1063.94"
/>
<path stroke="#8c8c8c" vector-effect="non-scaling-stroke" d="
  M 355.77 1034.02
  L 391.24 1159.55
  A 3.40 1.98 12.1 0 0 393.15 1161.29
  L 438.50 1179.89
  A 2.93 2.92 -68.4 0 0 442.35 1178.22
  L 442.65 1177.41
  A 3.69 3.68 21.4 0 0 440.58 1172.69
  L 425.19 1166.49
  A 0.80 0.80 0.0 0 1 424.75 1165.44
  L 463.41 1070.80
  A 0.38 0.38 0.0 0 1 463.91 1070.60
  L 480.51 1077.38
  A 2.86 2.85 22.5 0 0 484.22 1075.85
  L 484.55 1075.07
  Q 486.00 1071.62 482.54 1070.21
  L 438.37 1052.25
  A 3.43 3.42 -67.7 0 0 433.90 1054.13
  L 396.38 1146.03
  Q 395.77 1147.51 395.34 1145.97
  L 359.99 1020.62
  A 0.98 0.97 -86.7 0 0 359.44 1020.00
  L 313.21 1001.03
  A 3.07 3.06 24.0 0 0 309.30 1002.53
  L 308.93 1003.28
  A 3.51 3.51 0.0 0 0 310.77 1008.06
  L 326.43 1014.45
  A 0.74 0.74 0.0 0 1 326.84 1015.42
  L 288.12 1110.16
  A 0.30 0.29 22.3 0 1 287.73 1110.32
  L 271.04 1103.45
  A 2.75 2.75 0.0 0 0 267.40 1105.08
  L 267.08 1106.01
  Q 265.89 1109.38 269.20 1110.73
  Q 288.48 1118.60 307.36 1126.29
  C 308.85 1126.90 311.20 1127.40 313.11 1128.68
  A 1.26 1.21 61.4 0 0 313.81 1128.90
  Q 316.58 1128.91 317.46 1126.76
  Q 336.40 1080.49 355.36 1034.00
  Q 355.60 1033.41 355.77 1034.02"
/>
<path stroke="#8c8c8c" vector-effect="non-scaling-stroke" d="
  M 480.57 1188.92
  C 440.00 1167.66 444.78 1108.12 488.40 1093.74
  C 506.49 1087.78 527.47 1092.59 540.77 1106.45
  Q 559.80 1126.28 554.69 1154.18
  Q 554.60 1154.70 555.08 1154.91
  C 556.62 1155.59 558.22 1156.60 559.86 1155.99
  Q 562.08 1155.15 562.44 1152.25
  Q 565.19 1129.98 554.50 1112.19
  C 529.59 1070.74 467.39 1075.95 449.52 1120.96
  C 437.07 1152.29 453.10 1187.97 484.83 1198.70
  C 509.74 1207.13 538.33 1198.25 552.98 1175.91
  Q 554.64 1173.37 552.24 1171.50
  L 551.16 1170.66
  Q 548.75 1168.80 547.11 1171.36
  C 533.10 1193.20 503.38 1200.88 480.57 1188.92"
/>
<path stroke="#8c8c8c" vector-effect="non-scaling-stroke" d="
  M 626.43 1132.23
  C 620.57 1147.64 614.00 1162.89 607.75 1178.16
  Q 602.94 1189.93 599.32 1194.98
  C 585.74 1213.94 560.57 1221.47 538.51 1212.77
  A 2.77 2.77 0.0 0 0 534.86 1214.49
  L 534.59 1215.31
  Q 533.44 1218.84 536.94 1220.10
  C 566.42 1230.70 599.78 1217.10 611.86 1187.61
  Q 622.40 1161.89 632.90 1136.14
  C 635.26 1130.35 627.61 1129.11 626.43 1132.23"
/>
<path stroke="#8c8c8c" vector-effect="non-scaling-stroke" d="
  M 664.31 1231.01
  A 1.18 1.17 -79.7 0 1 665.04 1232.07
  L 666.17 1270.76
  Q 666.28 1274.24 669.75 1274.21
  L 670.67 1274.21
  Q 673.59 1274.19 673.52 1271.26
  L 670.32 1147.26
  A 0.42 0.41 11.9 0 0 670.08 1146.90
  L 665.10 1144.70
  Q 664.59 1144.47 664.18 1144.86
  L 575.28 1231.07
  Q 573.14 1233.14 575.25 1235.24
  L 575.81 1235.79
  Q 578.40 1238.38 581.03 1235.84
  L 608.80 1209.11
  A 1.17 1.16 -55.6 0 1 610.05 1208.87
  L 664.31 1231.01"
/>
<path stroke="#8c8c8c" vector-effect="non-scaling-stroke" d="
  M 843.55 1327.03
  Q 842.79 1327.99 842.93 1326.78
  L 854.71 1222.78
  Q 854.77 1222.30 854.34 1222.07
  Q 852.30 1220.98 850.03 1220.77
  Q 849.47 1220.71 849.04 1220.36
  Q 847.03 1218.71 844.48 1218.08
  Q 844.04 1217.97 843.66 1218.20
  L 789.01 1251.79
  Q 788.44 1252.14 788.28 1251.49
  L 772.83 1189.48
  Q 772.71 1188.99 772.29 1188.70
  Q 770.14 1187.24 767.49 1187.08
  C 766.90 1187.04 765.54 1185.81 764.73 1185.48
  Q 727.95 1170.44 691.60 1155.63
  Q 688.27 1154.27 686.85 1157.57
  L 686.52 1158.36
  A 2.89 2.88 -67.3 0 0 688.08 1162.17
  L 721.44 1175.79
  A 0.53 0.52 22.4 0 1 721.73 1176.47
  L 681.18 1275.74
  A 2.85 2.85 0.0 0 0 682.86 1279.50
  L 683.62 1279.78
  Q 687.01 1280.99 688.38 1277.66
  L 728.48 1179.49
  A 0.77 0.77 0.0 0 1 729.48 1179.07
  Q 745.84 1185.76 762.25 1192.47
  C 763.48 1192.98 764.12 1192.75 765.29 1192.39
  Q 765.82 1192.23 765.96 1192.77
  L 781.71 1256.25
  A 4.80 4.76 49.4 0 1 781.49 1259.23
  L 761.31 1308.50
  A 2.92 2.92 0.0 0 0 763.02 1312.35
  L 763.83 1312.65
  Q 767.31 1313.91 768.70 1310.49
  L 788.77 1261.31
  Q 789.04 1260.63 789.67 1260.24
  L 846.54 1225.19
  A 0.36 0.36 0.0 0 1 847.09 1225.54
  L 834.00 1341.07
  Q 833.96 1341.41 834.28 1341.54
  L 839.27 1343.51
  A 0.85 0.85 0.0 0 0 840.25 1343.24
  L 905.30 1260.78
  Q 905.98 1259.91 905.88 1261.02
  L 895.69 1366.05
  A 0.82 0.80 -76.8 0 0 896.20 1366.89
  L 900.95 1368.71
  Q 901.51 1368.93 901.87 1368.45
  L 973.28 1275.00
  Q 974.97 1272.78 972.84 1270.99
  L 971.47 1269.83
  Q 969.38 1268.06 967.71 1270.24
  L 905.12 1352.08
  Q 904.32 1353.13 904.45 1351.81
  L 914.69 1247.45
  Q 914.75 1246.80 914.15 1246.55
  L 909.29 1244.48
  Q 908.83 1244.29 908.51 1244.68
  L 843.55 1327.03"
/>
<path stroke="#8c8c8c" vector-effect="non-scaling-stroke" d="
  M 1120.21 158.43
  A 0.31 0.31 0.0 0 0 1120.10 157.98
  L 955.43 73.05
  A 0.31 0.31 0.0 0 0 954.98 73.27
  L 875.38 509.82
  A 0.31 0.31 0.0 0 0 875.94 510.06
  L 1120.21 158.43"
/>
<path stroke="#8c8c8c" vector-effect="non-scaling-stroke" d="
  M 921.36 76.43
  A 0.40 0.40 0.0 0 0 920.83 75.98
  L 621.01 181.08
  A 0.40 0.40 0.0 0 0 620.79 181.66
  L 834.48 548.91
  A 0.40 0.40 0.0 0 0 835.21 548.78
  L 921.36 76.43"
/>
<path stroke="#8c8c8c" vector-effect="non-scaling-stroke" d="
  M 872.32 572.48
  A 0.33 0.33 0.0 0 0 872.46 572.97
  L 1151.15 684.82
  A 0.33 0.33 0.0 0 0 1151.60 684.50
  L 1144.30 182.02
  A 0.33 0.33 0.0 0 0 1143.70 181.83
  L 872.32 572.48"
/>
<path stroke="#8c8c8c" vector-effect="non-scaling-stroke" d="
  M 594.26 197.90
  A 0.30 0.30 0.0 0 0 593.77 197.86
  L 471.17 351.17
  A 0.30 0.30 0.0 0 0 471.25 351.61
  L 789.64 534.84
  A 0.30 0.30 0.0 0 0 790.04 534.43
  L 594.26 197.90"
/>
<path stroke="#8c8c8c" vector-effect="non-scaling-stroke" d="
  M 578.61 719.48
  A 0.34 0.34 0.0 0 0 579.10 719.67
  L 811.15 584.49
  A 0.34 0.34 0.0 0 0 811.15 583.90
  L 467.45 386.11
  A 0.34 0.34 0.0 0 0 466.95 386.51
  L 578.61 719.48"
/>
<path stroke="#8c8c8c" vector-effect="non-scaling-stroke" d="
  M 602.45 744.77
  L 928.04 882.73
  A 0.17 0.17 0.0 0 0 928.27 882.52
  L 850.98 603.47
  A 3.01 3.01 0.0 0 0 846.57 601.67
  L 602.39 743.91
  A 0.48 0.48 0.0 0 0 602.45 744.77"
/>
<path stroke="#8c8c8c" vector-effect="non-scaling-stroke" d="
  M 955.75 871.51
  A 0.31 0.31 0.0 0 0 956.24 871.67
  L 1147.34 724.40
  A 0.31 0.31 0.0 0 0 1147.27 723.87
  L 885.70 616.65
  A 0.31 0.31 0.0 0 0 885.28 617.02
  L 955.75 871.51"
/>
<path stroke="#73890d" vector-effect="non-scaling-stroke" d="
  M 819.82 467.87
  Q 820.69 469.55 821.22 470.55
  Q 822.66 473.28 823.05 470.22
  Q 823.30 468.28 823.85 465.02
  Q 851.69 300.55 879.65 136.09
  C 879.95 134.32 880.57 132.28 880.86 130.34
  A 0.50 0.50 0.0 0 0 880.21 129.78
  L 678.03 194.87
  Q 677.49 195.04 677.84 195.49
  C 679.93 198.21 681.87 200.84 683.46 203.92
  Q 751.70 335.87 819.82 467.87"
/>
<path stroke="#878c12" vector-effect="non-scaling-stroke" d="
  M 918.83 557.08
  A 0.34 0.34 0.0 0 0 918.97 557.58
  L 1122.24 645.06
  A 0.34 0.34 0.0 0 0 1122.71 644.75
  L 1125.24 261.20
  A 0.34 0.34 0.0 0 0 1124.62 261.00
  L 918.83 557.08"
/>
<path stroke="#115154" vector-effect="non-scaling-stroke" d="
  M 831.32 632.90
  A 0.33 0.33 0.0 0 0 830.85 632.49
  L 636.79 741.80
  A 0.33 0.33 0.0 0 0 636.94 742.42
  L 783.36 745.09
  A 0.33 0.33 0.0 0 0 783.67 744.89
  L 831.32 632.90"
/>
<path stroke="#7b1743" vector-effect="non-scaling-stroke" d="
  M 899.20 862.73
  A 0.31 0.31 0.0 0 0 899.72 862.42
  L 838.43 646.31
  A 0.31 0.31 0.0 0 0 837.85 646.28
  L 790.60 757.23
  A 0.31 0.31 0.0 0 0 790.67 757.58
  L 899.20 862.73"
/>
<path stroke="#8c8c8c" vector-effect="non-scaling-stroke" d="
  M 664.97 838.49
  L 626.79 931.11
  A 0.70 0.70 0.0 0 0 627.17 932.03
  L 652.53 942.48
  A 51.37 50.79 22.4 0 0 719.38 915.10
  L 719.38 915.10
  A 51.37 50.79 22.4 0 0 691.24 848.56
  L 665.88 838.11
  A 0.70 0.70 0.0 0 0 664.97 838.49"
/>
<path stroke="#8c8c8c" vector-effect="non-scaling-stroke" d="
  M 729.44 932.68
  A 0.38 0.38 0.0 0 0 729.56 933.31
  L 777.21 952.75
  A 0.38 0.38 0.0 0 0 777.73 952.39
  L 776.10 888.28
  A 0.38 0.38 0.0 0 0 775.46 888.02
  L 729.44 932.68"
/>
<path stroke="#8c8c8c" vector-effect="non-scaling-stroke" d="
  M 543.80 977.14
  A 55.71 55.71 0.0 0 0 488.09 921.43
  A 55.71 55.71 0.0 0 0 432.38 977.14
  A 55.71 55.71 0.0 0 0 488.09 1032.85
  A 55.71 55.71 0.0 0 0 543.80 977.14"
/>
<path stroke="#8c8c8c" vector-effect="non-scaling-stroke" d="
  M 572.70 952.08
  L 553.57 998.95
  A 0.67 0.67 0.0 0 0 553.94 999.82
  L 593.31 1015.89
  A 26.23 25.91 22.2 0 0 627.38 1001.81
  L 627.43 1001.68
  A 26.23 25.91 22.2 0 0 612.94 967.78
  L 573.57 951.71
  A 0.67 0.67 0.0 0 0 572.70 952.08"
/>
<path stroke="#8c8c8c" vector-effect="non-scaling-stroke" d="
  M 611.37 1042.76
  A 0.30 0.30 0.0 0 0 611.46 1043.25
  L 664.27 1064.80
  A 0.30 0.30 0.0 0 0 664.68 1064.52
  L 662.77 993.72
  A 0.30 0.30 0.0 0 0 662.26 993.52
  L 611.37 1042.76"
/>
<path stroke="#8c8c8c" vector-effect="non-scaling-stroke" d="
  M 903.1765 1087.0561
  A 0.60 0.60 0.0 0 0 902.8477 1086.2738
  L 885.3117 1079.1175
  A 0.60 0.60 0.0 0 0 884.5295 1079.4463
  L 842.8235 1181.6439
  A 0.60 0.60 0.0 0 0 843.1523 1182.4262
  L 860.6883 1189.5825
  A 0.60 0.60 0.0 0 0 861.4705 1189.2537
  L 903.1765 1087.0561"
/>
<path stroke="#8c8c8c" vector-effect="non-scaling-stroke" d="
  M 930.22 1172.91
  A 0.35 0.35 0.0 0 0 930.33 1173.49
  L 982.95 1194.96
  A 0.35 0.35 0.0 0 0 983.44 1194.63
  L 981.56 1124.02
  A 0.35 0.35 0.0 0 0 980.97 1123.77
  L 930.22 1172.91"
/>
<path stroke="#8c8c8c" vector-effect="non-scaling-stroke" d="
  M 982.20 1035.86
  A 0.38 0.38 0.0 0 0 982.32 1036.49
  L 1029.97 1055.93
  A 0.38 0.38 0.0 0 0 1030.49 1055.57
  L 1028.80 991.61
  A 0.38 0.38 0.0 0 0 1028.16 991.34
  L 982.20 1035.86"
/>
<path stroke="#8c8c8c" vector-effect="non-scaling-stroke" d="
  M 351.0716 1024.9281
  A 0.39 0.39 0.0 0 0 350.8579 1024.4196
  L 334.3033 1017.6639
  A 0.39 0.39 0.0 0 0 333.7949 1017.8776
  L 295.0284 1112.8719
  A 0.39 0.39 0.0 0 0 295.2421 1113.3804
  L 311.7967 1120.1361
  A 0.39 0.39 0.0 0 0 312.3051 1119.9224
  L 351.0716 1024.9281"
/>
<path stroke="#8c8c8c" vector-effect="non-scaling-stroke" d="
  M 456.5643 1067.9525
  A 0.33 0.33 0.0 0 0 456.3834 1067.5223
  L 439.7178 1060.7212
  A 0.33 0.33 0.0 0 0 439.2875 1060.9020
  L 400.4757 1156.0075
  A 0.33 0.33 0.0 0 0 400.6566 1156.4377
  L 417.3222 1163.2388
  A 0.33 0.33 0.0 0 0 417.7525 1163.0580
  L 456.5643 1067.9525"
/>
<path stroke="#8c8c8c" vector-effect="non-scaling-stroke" d="
  M 615.55 1202.41
  A 0.36 0.36 0.0 0 0 615.67 1203.00
  L 664.40 1222.89
  A 0.36 0.36 0.0 0 0 664.90 1222.54
  L 663.11 1157.26
  A 0.36 0.36 0.0 0 0 662.50 1157.01
  L 615.55 1202.41"
/>
</g>
<path fill="#191919" d="
  M 0.00 0.00
  L 1423.00 0.00
  L 1423.00 1423.00
  L 0.00 1423.00
  L 0.00 0.00
  Z
  M 1172.30 152.61
  C 1099.83 115.60 1027.64 77.99 955.31 40.71
  Q 952.57 39.29 950.58 36.99
  C 949.19 35.39 948.06 34.37 946.02 35.09
  Q 769.83 96.85 593.64 158.61
  C 590.45 159.73 588.73 158.04 586.10 161.34
  Q 507.78 259.29 429.30 357.11
  C 426.74 360.31 428.13 363.92 429.43 367.79
  Q 493.87 559.41 558.11 751.09
  C 559.57 755.44 559.77 757.02 563.76 758.71
  Q 747.17 836.43 930.59 914.13
  C 933.41 915.33 936.08 916.98 938.89 918.39
  C 945.25 921.57 947.16 916.43 951.26 913.27
  Q 1066.32 824.57 1181.37 735.85
  C 1186.21 732.11 1185.37 727.01 1185.27 720.50
  Q 1180.83 442.27 1177.02 164.03
  C 1176.94 157.75 1179.31 156.18 1172.30 152.61
  Z
  M 543.07 874.58
  Q 544.41 873.16 543.68 874.97
  L 533.92 898.88
  A 2.74 2.73 22.3 0 0 535.41 902.43
  L 536.22 902.77
  Q 539.60 904.17 540.98 900.78
  L 577.93 810.38
  A 0.34 0.33 -41.9 0 1 578.56 810.41
  L 613.40 933.51
  A 2.07 2.04 -2.8 0 0 615.04 934.97
  Q 617.00 935.30 618.92 936.22
  C 625.46 939.35 632.35 941.91 639.06 944.66
  Q 652.87 950.32 655.53 951.13
  C 693.09 962.50 730.88 934.07 730.30 894.77
  C 729.95 871.63 716.05 850.93 694.43 842.10
  Q 680.04 836.23 665.66 830.33
  C 664.24 829.75 662.40 829.37 660.80 828.56
  C 658.75 827.53 656.16 827.14 655.21 829.50
  Q 636.89 874.94 618.05 920.34
  Q 617.69 921.22 617.43 920.30
  L 582.61 796.87
  Q 582.45 796.28 581.87 796.10
  L 577.74 794.75
  Q 577.23 794.58 576.80 794.26
  C 574.74 792.72 572.19 792.47 571.03 795.27
  Q 559.08 824.04 547.36 852.92
  Q 543.41 862.67 540.22 866.79
  C 530.26 879.64 511.98 885.17 496.54 878.70
  C 482.33 872.75 473.49 860.02 472.66 844.81
  Q 472.25 837.30 474.73 831.25
  Q 487.75 799.38 500.78 767.51
  C 502.06 764.38 500.89 762.85 497.73 761.99
  C 496.16 761.57 494.67 760.57 493.43 760.06
  Q 461.25 746.89 429.59 734.00
  A 3.69 3.68 22.2 0 0 424.79 736.01
  L 383.72 836.48
  Q 382.34 839.86 385.71 841.27
  L 386.32 841.53
  A 2.91 2.90 -67.5 0 0 390.13 839.95
  L 409.37 792.90
  A 0.61 0.61 0.0 0 1 410.16 792.56
  L 454.55 810.69
  Q 458.02 812.10 459.26 808.57
  L 459.48 807.95
  A 3.02 3.02 0.0 0 0 457.76 804.15
  L 412.72 785.78
  A 0.39 0.39 0.0 0 1 412.50 785.27
  L 429.90 742.68
  A 0.67 0.66 22.1 0 1 430.77 742.32
  L 492.68 767.57
  A 0.21 0.20 22.6 0 1 492.79 767.83
  Q 481.08 796.62 469.39 825.29
  Q 461.84 843.84 468.92 860.78
  C 481.46 890.74 520.68 898.24 543.07 874.58
  Z
  M 358.22 920.55
  A 0.34 0.34 0.0 0 1 357.77 920.10
  L 379.42 867.17
  A 3.00 3.00 0.0 0 0 377.62 863.20
  L 376.77 862.91
  Q 373.06 861.63 371.58 865.26
  L 326.19 976.35
  A 3.23 3.23 0.0 0 0 327.86 980.53
  L 328.67 980.90
  Q 332.30 982.53 333.80 978.84
  L 352.88 932.09
  A 2.05 2.04 -0.4 0 1 353.99 930.97
  L 364.37 926.65
  A 0.82 0.81 66.9 0 1 365.43 927.08
  Q 382.37 967.55 399.35 1008.02
  C 400.49 1010.75 402.43 1011.47 405.10 1011.99
  Q 405.65 1012.09 406.04 1011.69
  L 408.04 1009.59
  Q 408.48 1009.13 408.23 1008.55
  L 372.77 923.94
  A 0.65 0.65 0.0 0 1 373.12 923.09
  L 441.56 894.29
  Q 442.54 893.88 442.39 892.84
  Q 442.22 891.63 442.51 890.46
  Q 442.68 889.83 442.08 889.56
  L 437.73 887.53
  Q 437.23 887.30 436.73 887.51
  L 358.22 920.55
  Z
  M 777.11 960.73
  Q 777.82 961.02 777.84 961.79
  L 778.94 999.54
  Q 779.05 1003.18 782.69 1003.08
  L 783.45 1003.06
  A 2.96 2.95 -1.6 0 0 786.33 1000.03
  L 782.96 878.69
  Q 782.95 878.17 782.47 877.97
  L 777.84 876.10
  A 0.68 0.68 0.0 0 0 777.11 876.24
  L 689.68 960.93
  A 2.69 2.68 44.4 0 0 689.72 964.83
  L 690.36 965.42
  Q 692.99 967.86 695.58 965.37
  L 722.86 939.14
  Q 723.27 938.75 723.79 938.96
  L 777.11 960.73
  Z
  M 630.84 1012.06
  Q 630.82 1012.04 630.84 1012.02
  Q 636.66 1004.24 637.25 995.51
  Q 638.54 976.44 624.79 965.60
  Q 620.84 962.48 612.10 958.90
  Q 591.79 950.59 571.94 942.51
  A 3.61 3.60 -67.9 0 0 567.25 944.49
  L 552.44 980.71
  Q 551.37 983.33 551.56 980.51
  C 553.00 959.35 543.10 938.70 526.43 926.18
  C 505.53 910.47 477.44 909.09 455.09 922.72
  C 423.28 942.12 414.54 985.29 437.08 1015.34
  C 461.18 1047.49 509.32 1049.72 535.71 1019.22
  Q 537.69 1016.93 536.55 1019.73
  L 521.51 1056.40
  A 2.93 2.93 0.0 0 0 523.13 1060.23
  L 524.02 1060.59
  Q 527.82 1062.12 529.37 1058.33
  L 550.14 1007.38
  Q 550.35 1006.85 550.87 1007.07
  Q 567.46 1013.87 584.11 1020.66
  Q 595.49 1025.29 600.86 1025.84
  Q 612.21 1026.98 621.86 1020.50
  Q 624.78 1018.54 622.25 1020.99
  L 567.90 1073.64
  A 3.07 3.06 45.5 0 0 567.87 1078.02
  L 568.54 1078.69
  Q 571.34 1081.48 574.19 1078.74
  L 604.40 1049.67
  Q 604.77 1049.32 605.24 1049.51
  L 664.24 1073.61
  A 1.03 1.02 -79.9 0 1 664.88 1074.53
  L 666.10 1118.01
  Q 666.11 1118.46 666.49 1118.70
  Q 668.75 1120.18 671.43 1120.52
  Q 671.90 1120.59 672.30 1120.84
  Q 673.16 1121.39 674.10 1121.78
  Q 708.01 1135.84 742.04 1149.64
  Q 743.74 1150.33 745.53 1150.72
  Q 746.00 1150.82 746.37 1151.15
  C 750.18 1154.58 752.48 1151.98 753.99 1148.29
  Q 774.00 1099.28 793.83 1050.72
  Q 794.32 1049.52 794.68 1050.77
  Q 813.54 1117.62 832.37 1184.80
  C 833.06 1187.26 835.24 1188.18 837.65 1188.55
  C 839.06 1188.77 839.64 1189.56 840.74 1190.01
  Q 849.80 1193.78 882.99 1207.28
  Q 883.62 1207.54 885.22 1207.76
  Q 885.73 1207.83 886.15 1208.14
  Q 888.19 1209.69 890.64 1210.48
  A 0.93 0.92 -57.6 0 0 891.56 1210.27
  L 923.02 1180.03
  A 1.15 1.14 -55.4 0 1 924.24 1179.80
  L 982.97 1203.79
  A 1.06 1.06 0.0 0 1 983.63 1204.74
  L 984.87 1246.53
  Q 984.99 1250.38 988.84 1250.35
  L 989.77 1250.34
  A 3.02 3.01 -1.0 0 0 992.76 1247.25
  L 989.34 1113.56
  Q 989.32 1112.90 988.71 1112.66
  L 983.54 1110.62
  Q 983.07 1110.44 982.70 1110.79
  L 888.93 1201.67
  Q 888.51 1202.07 888.15 1201.61
  L 887.52 1200.80
  Q 887.18 1200.36 886.67 1200.15
  L 869.34 1193.11
  Q 868.61 1192.81 868.91 1192.08
  L 910.43 1090.43
  A 1.01 1.00 22.3 0 1 911.75 1089.88
  L 928.40 1096.75
  A 3.85 3.85 0.0 0 0 933.54 1094.37
  L 933.80 1093.55
  A 3.28 3.28 0.0 0 0 931.92 1089.52
  Q 910.76 1080.89 889.50 1072.23
  Q 889.46 1072.21 887.69 1071.62
  C 883.88 1070.34 880.79 1067.07 878.40 1072.91
  Q 858.15 1122.54 838.06 1171.71
  Q 837.65 1172.71 837.36 1171.67
  L 799.12 1036.02
  Q 798.97 1035.51 798.52 1035.22
  C 795.88 1033.51 792.58 1032.75 791.32 1035.83
  Q 769.45 1089.27 747.69 1142.64
  Q 747.42 1143.30 746.75 1143.03
  L 681.48 1116.36
  Q 680.97 1116.15 681.18 1115.64
  L 724.96 1008.48
  A 3.10 3.10 0.0 0 0 723.22 1004.42
  L 722.34 1004.07
  Q 718.72 1002.65 717.25 1006.25
  L 674.75 1110.33
  Q 673.86 1112.49 673.81 1110.16
  L 670.56 983.28
  Q 670.55 982.71 670.02 982.50
  L 664.82 980.38
  A 0.79 0.78 34.1 0 0 663.97 980.54
  L 631.33 1012.22
  Q 631.19 1012.35 631.04 1012.23
  L 630.84 1012.06
  Z
  M 839.56 1018.67
  C 815.31 1009.03 802.28 981.61 810.26 956.65
  C 819.49 927.77 852.24 912.56 879.73 925.59
  C 896.23 933.41 907.14 948.88 909.00 967.24
  Q 909.74 974.56 908.11 981.30
  Q 907.45 984.05 910.26 984.37
  L 912.09 984.58
  Q 914.90 984.90 915.42 982.12
  C 919.45 960.87 910.60 938.43 893.54 925.49
  C 857.98 898.52 806.98 920.43 801.16 964.36
  C 796.70 998.06 823.23 1029.76 857.75 1029.56
  Q 887.99 1029.39 906.11 1004.80
  Q 908.25 1001.91 905.53 999.56
  L 905.13 999.22
  Q 902.41 996.87 900.46 999.89
  C 887.73 1019.73 861.62 1027.44 839.56 1018.67
  Z
  M 978.19 961.97
  C 972.00 977.98 965.27 993.83 958.79 1009.73
  Q 948.24 1035.64 922.25 1042.52
  Q 908.04 1046.28 892.71 1040.42
  Q 889.77 1039.30 888.52 1042.19
  L 888.32 1042.65
  A 3.28 3.28 0.0 0 0 889.69 1046.79
  Q 891.83 1048.02 894.74 1048.77
  C 916.12 1054.22 936.71 1049.04 952.18 1033.85
  Q 959.75 1026.42 963.44 1017.44
  Q 974.18 991.26 984.88 965.06
  C 987.13 959.55 979.93 957.45 978.19 961.97
  Z
  M 1029.93 1063.94
  Q 1030.67 1064.24 1030.69 1065.03
  L 1031.84 1103.00
  Q 1031.94 1106.43 1035.38 1106.34
  L 1036.36 1106.32
  Q 1039.14 1106.25 1039.07 1103.47
  L 1035.86 981.74
  Q 1035.85 981.38 1035.51 981.25
  L 1030.78 979.43
  Q 1030.15 979.19 1029.67 979.66
  L 943.16 1063.43
  Q 940.57 1065.94 943.05 1068.55
  L 943.58 1069.11
  A 2.89 2.89 0.0 0 0 947.67 1069.20
  L 975.37 1042.60
  A 1.47 1.46 -55.7 0 1 976.94 1042.30
  L 1029.93 1063.94
  Z
  M 355.77 1034.02
  L 391.24 1159.55
  A 3.40 1.98 12.1 0 0 393.15 1161.29
  L 438.50 1179.89
  A 2.93 2.92 -68.4 0 0 442.35 1178.22
  L 442.65 1177.41
  A 3.69 3.68 21.4 0 0 440.58 1172.69
  L 425.19 1166.49
  A 0.80 0.80 0.0 0 1 424.75 1165.44
  L 463.41 1070.80
  A 0.38 0.38 0.0 0 1 463.91 1070.60
  L 480.51 1077.38
  A 2.86 2.85 22.5 0 0 484.22 1075.85
  L 484.55 1075.07
  Q 486.00 1071.62 482.54 1070.21
  L 438.37 1052.25
  A 3.43 3.42 -67.7 0 0 433.90 1054.13
  L 396.38 1146.03
  Q 395.77 1147.51 395.34 1145.97
  L 359.99 1020.62
  A 0.98 0.97 -86.7 0 0 359.44 1020.00
  L 313.21 1001.03
  A 3.07 3.06 24.0 0 0 309.30 1002.53
  L 308.93 1003.28
  A 3.51 3.51 0.0 0 0 310.77 1008.06
  L 326.43 1014.45
  A 0.74 0.74 0.0 0 1 326.84 1015.42
  L 288.12 1110.16
  A 0.30 0.29 22.3 0 1 287.73 1110.32
  L 271.04 1103.45
  A 2.75 2.75 0.0 0 0 267.40 1105.08
  L 267.08 1106.01
  Q 265.89 1109.38 269.20 1110.73
  Q 288.48 1118.60 307.36 1126.29
  C 308.85 1126.90 311.20 1127.40 313.11 1128.68
  A 1.26 1.21 61.4 0 0 313.81 1128.90
  Q 316.58 1128.91 317.46 1126.76
  Q 336.40 1080.49 355.36 1034.00
  Q 355.60 1033.41 355.77 1034.02
  Z
  M 480.57 1188.92
  C 440.00 1167.66 444.78 1108.12 488.40 1093.74
  C 506.49 1087.78 527.47 1092.59 540.77 1106.45
  Q 559.80 1126.28 554.69 1154.18
  Q 554.60 1154.70 555.08 1154.91
  C 556.62 1155.59 558.22 1156.60 559.86 1155.99
  Q 562.08 1155.15 562.44 1152.25
  Q 565.19 1129.98 554.50 1112.19
  C 529.59 1070.74 467.39 1075.95 449.52 1120.96
  C 437.07 1152.29 453.10 1187.97 484.83 1198.70
  C 509.74 1207.13 538.33 1198.25 552.98 1175.91
  Q 554.64 1173.37 552.24 1171.50
  L 551.16 1170.66
  Q 548.75 1168.80 547.11 1171.36
  C 533.10 1193.20 503.38 1200.88 480.57 1188.92
  Z
  M 626.43 1132.23
  C 620.57 1147.64 614.00 1162.89 607.75 1178.16
  Q 602.94 1189.93 599.32 1194.98
  C 585.74 1213.94 560.57 1221.47 538.51 1212.77
  A 2.77 2.77 0.0 0 0 534.86 1214.49
  L 534.59 1215.31
  Q 533.44 1218.84 536.94 1220.10
  C 566.42 1230.70 599.78 1217.10 611.86 1187.61
  Q 622.40 1161.89 632.90 1136.14
  C 635.26 1130.35 627.61 1129.11 626.43 1132.23
  Z
  M 664.31 1231.01
  A 1.18 1.17 -79.7 0 1 665.04 1232.07
  L 666.17 1270.76
  Q 666.28 1274.24 669.75 1274.21
  L 670.67 1274.21
  Q 673.59 1274.19 673.52 1271.26
  L 670.32 1147.26
  A 0.42 0.41 11.9 0 0 670.08 1146.90
  L 665.10 1144.70
  Q 664.59 1144.47 664.18 1144.86
  L 575.28 1231.07
  Q 573.14 1233.14 575.25 1235.24
  L 575.81 1235.79
  Q 578.40 1238.38 581.03 1235.84
  L 608.80 1209.11
  A 1.17 1.16 -55.6 0 1 610.05 1208.87
  L 664.31 1231.01
  Z
  M 843.55 1327.03
  Q 842.79 1327.99 842.93 1326.78
  L 854.71 1222.78
  Q 854.77 1222.30 854.34 1222.07
  Q 852.30 1220.98 850.03 1220.77
  Q 849.47 1220.71 849.04 1220.36
  Q 847.03 1218.71 844.48 1218.08
  Q 844.04 1217.97 843.66 1218.20
  L 789.01 1251.79
  Q 788.44 1252.14 788.28 1251.49
  L 772.83 1189.48
  Q 772.71 1188.99 772.29 1188.70
  Q 770.14 1187.24 767.49 1187.08
  C 766.90 1187.04 765.54 1185.81 764.73 1185.48
  Q 727.95 1170.44 691.60 1155.63
  Q 688.27 1154.27 686.85 1157.57
  L 686.52 1158.36
  A 2.89 2.88 -67.3 0 0 688.08 1162.17
  L 721.44 1175.79
  A 0.53 0.52 22.4 0 1 721.73 1176.47
  L 681.18 1275.74
  A 2.85 2.85 0.0 0 0 682.86 1279.50
  L 683.62 1279.78
  Q 687.01 1280.99 688.38 1277.66
  L 728.48 1179.49
  A 0.77 0.77 0.0 0 1 729.48 1179.07
  Q 745.84 1185.76 762.25 1192.47
  C 763.48 1192.98 764.12 1192.75 765.29 1192.39
  Q 765.82 1192.23 765.96 1192.77
  L 781.71 1256.25
  A 4.80 4.76 49.4 0 1 781.49 1259.23
  L 761.31 1308.50
  A 2.92 2.92 0.0 0 0 763.02 1312.35
  L 763.83 1312.65
  Q 767.31 1313.91 768.70 1310.49
  L 788.77 1261.31
  Q 789.04 1260.63 789.67 1260.24
  L 846.54 1225.19
  A 0.36 0.36 0.0 0 1 847.09 1225.54
  L 834.00 1341.07
  Q 833.96 1341.41 834.28 1341.54
  L 839.27 1343.51
  A 0.85 0.85 0.0 0 0 840.25 1343.24
  L 905.30 1260.78
  Q 905.98 1259.91 905.88 1261.02
  L 895.69 1366.05
  A 0.82 0.80 -76.8 0 0 896.20 1366.89
  L 900.95 1368.71
  Q 901.51 1368.93 901.87 1368.45
  L 973.28 1275.00
  Q 974.97 1272.78 972.84 1270.99
  L 971.47 1269.83
  Q 969.38 1268.06 967.71 1270.24
  L 905.12 1352.08
  Q 904.32 1353.13 904.45 1351.81
  L 914.69 1247.45
  Q 914.75 1246.80 914.15 1246.55
  L 909.29 1244.48
  Q 908.83 1244.29 908.51 1244.68
  L 843.55 1327.03
  Z"
/>
<path fill="#ffffff" d="
  M 955.31 40.71
  C 1027.64 77.99 1099.83 115.60 1172.30 152.61
  C 1179.31 156.18 1176.94 157.75 1177.02 164.03
  Q 1180.83 442.27 1185.27 720.50
  C 1185.37 727.01 1186.21 732.11 1181.37 735.85
  Q 1066.32 824.57 951.26 913.27
  C 947.16 916.43 945.25 921.57 938.89 918.39
  C 936.08 916.98 933.41 915.33 930.59 914.13
  Q 747.17 836.43 563.76 758.71
  C 559.77 757.02 559.57 755.44 558.11 751.09
  Q 493.87 559.41 429.43 367.79
  C 428.13 363.92 426.74 360.31 429.30 357.11
  Q 507.78 259.29 586.10 161.34
  C 588.73 158.04 590.45 159.73 593.64 158.61
  Q 769.83 96.85 946.02 35.09
  C 948.06 34.37 949.19 35.39 950.58 36.99
  Q 952.57 39.29 955.31 40.71
  Z
  M 1120.21 158.43
  A 0.31 0.31 0.0 0 0 1120.10 157.98
  L 955.43 73.05
  A 0.31 0.31 0.0 0 0 954.98 73.27
  L 875.38 509.82
  A 0.31 0.31 0.0 0 0 875.94 510.06
  L 1120.21 158.43
  Z
  M 921.36 76.43
  A 0.40 0.40 0.0 0 0 920.83 75.98
  L 621.01 181.08
  A 0.40 0.40 0.0 0 0 620.79 181.66
  L 834.48 548.91
  A 0.40 0.40 0.0 0 0 835.21 548.78
  L 921.36 76.43
  Z
  M 872.32 572.48
  A 0.33 0.33 0.0 0 0 872.46 572.97
  L 1151.15 684.82
  A 0.33 0.33 0.0 0 0 1151.60 684.50
  L 1144.30 182.02
  A 0.33 0.33 0.0 0 0 1143.70 181.83
  L 872.32 572.48
  Z
  M 594.26 197.90
  A 0.30 0.30 0.0 0 0 593.77 197.86
  L 471.17 351.17
  A 0.30 0.30 0.0 0 0 471.25 351.61
  L 789.64 534.84
  A 0.30 0.30 0.0 0 0 790.04 534.43
  L 594.26 197.90
  Z
  M 578.61 719.48
  A 0.34 0.34 0.0 0 0 579.10 719.67
  L 811.15 584.49
  A 0.34 0.34 0.0 0 0 811.15 583.90
  L 467.45 386.11
  A 0.34 0.34 0.0 0 0 466.95 386.51
  L 578.61 719.48
  Z
  M 602.45 744.77
  L 928.04 882.73
  A 0.17 0.17 0.0 0 0 928.27 882.52
  L 850.98 603.47
  A 3.01 3.01 0.0 0 0 846.57 601.67
  L 602.39 743.91
  A 0.48 0.48 0.0 0 0 602.45 744.77
  Z
  M 955.75 871.51
  A 0.31 0.31 0.0 0 0 956.24 871.67
  L 1147.34 724.40
  A 0.31 0.31 0.0 0 0 1147.27 723.87
  L 885.70 616.65
  A 0.31 0.31 0.0 0 0 885.28 617.02
  L 955.75 871.51
  Z"
/>
<path fill="#191919" d="
  M 1120.21 158.43
  L 875.94 510.06
  A 0.31 0.31 0.0 0 1 875.38 509.82
  L 954.98 73.27
  A 0.31 0.31 0.0 0 1 955.43 73.05
  L 1120.10 157.98
  A 0.31 0.31 0.0 0 1 1120.21 158.43
  Z"
/>
<path fill="#191919" d="
  M 921.36 76.43
  L 835.21 548.78
  A 0.40 0.40 0.0 0 1 834.48 548.91
  L 620.79 181.66
  A 0.40 0.40 0.0 0 1 621.01 181.08
  L 920.83 75.98
  A 0.40 0.40 0.0 0 1 921.36 76.43
  Z
  M 819.82 467.87
  Q 820.69 469.55 821.22 470.55
  Q 822.66 473.28 823.05 470.22
  Q 823.30 468.28 823.85 465.02
  Q 851.69 300.55 879.65 136.09
  C 879.95 134.32 880.57 132.28 880.86 130.34
  A 0.50 0.50 0.0 0 0 880.21 129.78
  L 678.03 194.87
  Q 677.49 195.04 677.84 195.49
  C 679.93 198.21 681.87 200.84 683.46 203.92
  Q 751.70 335.87 819.82 467.87
  Z"
/>
<path fill="#ccf900" d="
  M 819.82 467.87
  Q 751.70 335.87 683.46 203.92
  C 681.87 200.84 679.93 198.21 677.84 195.49
  Q 677.49 195.04 678.03 194.87
  L 880.21 129.78
  A 0.50 0.50 0.0 0 1 880.86 130.34
  C 880.57 132.28 879.95 134.32 879.65 136.09
  Q 851.69 300.55 823.85 465.02
  Q 823.30 468.28 823.05 470.22
  Q 822.66 473.28 821.22 470.55
  Q 820.69 469.55 819.82 467.87
  Z"
/>
<path fill="#191919" d="
  M 872.32 572.48
  L 1143.70 181.83
  A 0.33 0.33 0.0 0 1 1144.30 182.02
  L 1151.60 684.50
  A 0.33 0.33 0.0 0 1 1151.15 684.82
  L 872.46 572.97
  A 0.33 0.33 0.0 0 1 872.32 572.48
  Z
  M 918.83 557.08
  A 0.34 0.34 0.0 0 0 918.97 557.58
  L 1122.24 645.06
  A 0.34 0.34 0.0 0 0 1122.71 644.75
  L 1125.24 261.20
  A 0.34 0.34 0.0 0 0 1124.62 261.00
  L 918.83 557.08
  Z"
/>
<path fill="#191919" d="
  M 594.26 197.90
  L 790.04 534.43
  A 0.30 0.30 0.0 0 1 789.64 534.84
  L 471.25 351.61
  A 0.30 0.30 0.0 0 1 471.17 351.17
  L 593.77 197.86
  A 0.30 0.30 0.0 0 1 594.26 197.90
  Z"
/>
<path fill="#f5ff0b" d="
  M 918.83 557.08
  L 1124.62 261.00
  A 0.34 0.34 0.0 0 1 1125.24 261.20
  L 1122.71 644.75
  A 0.34 0.34 0.0 0 1 1122.24 645.06
  L 918.97 557.58
  A 0.34 0.34 0.0 0 1 918.83 557.08
  Z"
/>
<path fill="#191919" d="
  M 578.61 719.48
  L 466.95 386.51
  A 0.34 0.34 0.0 0 1 467.45 386.11
  L 811.15 583.90
  A 0.34 0.34 0.0 0 1 811.15 584.49
  L 579.10 719.67
  A 0.34 0.34 0.0 0 1 578.61 719.48
  Z"
/>
<path fill="#191919" d="
  M 928.04 882.73
  L 602.45 744.77
  A 0.48 0.48 0.0 0 1 602.39 743.91
  L 846.57 601.67
  A 3.01 3.01 0.0 0 1 850.98 603.47
  L 928.27 882.52
  A 0.17 0.17 0.0 0 1 928.04 882.73
  Z
  M 831.32 632.90
  A 0.33 0.33 0.0 0 0 830.85 632.49
  L 636.79 741.80
  A 0.33 0.33 0.0 0 0 636.94 742.42
  L 783.36 745.09
  A 0.33 0.33 0.0 0 0 783.67 744.89
  L 831.32 632.90
  Z
  M 899.20 862.73
  A 0.31 0.31 0.0 0 0 899.72 862.42
  L 838.43 646.31
  A 0.31 0.31 0.0 0 0 837.85 646.28
  L 790.60 757.23
  A 0.31 0.31 0.0 0 0 790.67 757.58
  L 899.20 862.73
  Z"
/>
<path fill="#191919" d="
  M 955.75 871.51
  L 885.28 617.02
  A 0.31 0.31 0.0 0 1 885.70 616.65
  L 1147.27 723.87
  A 0.31 0.31 0.0 0 1 1147.34 724.40
  L 956.24 871.67
  A 0.31 0.31 0.0 0 1 955.75 871.51
  Z"
/>
<path fill="#09888f" d="
  M 831.32 632.90
  L 783.67 744.89
  A 0.33 0.33 0.0 0 1 783.36 745.09
  L 636.94 742.42
  A 0.33 0.33 0.0 0 1 636.79 741.80
  L 830.85 632.49
  A 0.33 0.33 0.0 0 1 831.32 632.90
  Z"
/>
<path fill="#dc146c" d="
  M 899.20 862.73
  L 790.67 757.58
  A 0.31 0.31 0.0 0 1 790.60 757.23
  L 837.85 646.28
  A 0.31 0.31 0.0 0 1 838.43 646.31
  L 899.72 862.42
  A 0.31 0.31 0.0 0 1 899.20 862.73
  Z"
/>
<path fill="#ffffff" d="
  M 543.07 874.58
  C 520.68 898.24 481.46 890.74 468.92 860.78
  Q 461.84 843.84 469.39 825.29
  Q 481.08 796.62 492.79 767.83
  A 0.21 0.20 22.6 0 0 492.68 767.57
  L 430.77 742.32
  A 0.67 0.66 22.1 0 0 429.90 742.68
  L 412.50 785.27
  A 0.39 0.39 0.0 0 0 412.72 785.78
  L 457.76 804.15
  A 3.02 3.02 0.0 0 1 459.48 807.95
  L 459.26 808.57
  Q 458.02 812.10 454.55 810.69
  L 410.16 792.56
  A 0.61 0.61 0.0 0 0 409.37 792.90
  L 390.13 839.95
  A 2.91 2.90 -67.5 0 1 386.32 841.53
  L 385.71 841.27
  Q 382.34 839.86 383.72 836.48
  L 424.79 736.01
  A 3.69 3.68 22.2 0 1 429.59 734.00
  Q 461.25 746.89 493.43 760.06
  C 494.67 760.57 496.16 761.57 497.73 761.99
  C 500.89 762.85 502.06 764.38 500.78 767.51
  Q 487.75 799.38 474.73 831.25
  Q 472.25 837.30 472.66 844.81
  C 473.49 860.02 482.33 872.75 496.54 878.70
  C 511.98 885.17 530.26 879.64 540.22 866.79
  Q 543.41 862.67 547.36 852.92
  Q 559.08 824.04 571.03 795.27
  C 572.19 792.47 574.74 792.72 576.80 794.26
  Q 577.23 794.58 577.74 794.75
  L 581.87 796.10
  Q 582.45 796.28 582.61 796.87
  L 617.43 920.30
  Q 617.69 921.22 618.05 920.34
  Q 636.89 874.94 655.21 829.50
  C 656.16 827.14 658.75 827.53 660.80 828.56
  C 662.40 829.37 664.24 829.75 665.66 830.33
  Q 680.04 836.23 694.43 842.10
  C 716.05 850.93 729.95 871.63 730.30 894.77
  C 730.88 934.07 693.09 962.50 655.53 951.13
  Q 652.87 950.32 639.06 944.66
  C 632.35 941.91 625.46 939.35 618.92 936.22
  Q 617.00 935.30 615.04 934.97
  A 2.07 2.04 -2.8 0 1 613.40 933.51
  L 578.56 810.41
  A 0.34 0.33 -41.9 0 0 577.93 810.38
  L 540.98 900.78
  Q 539.60 904.17 536.22 902.77
  L 535.41 902.43
  A 2.74 2.73 22.3 0 1 533.92 898.88
  L 543.68 874.97
  Q 544.41 873.16 543.07 874.58
  Z
  M 664.97 838.49
  L 626.79 931.11
  A 0.70 0.70 0.0 0 0 627.17 932.03
  L 652.53 942.48
  A 51.37 50.79 22.4 0 0 719.38 915.10
  L 719.38 915.10
  A 51.37 50.79 22.4 0 0 691.24 848.56
  L 665.88 838.11
  A 0.70 0.70 0.0 0 0 664.97 838.49
  Z"
/>
<path fill="#191919" d="
  M 664.97 838.49
  A 0.70 0.70 0.0 0 1 665.88 838.11
  L 691.24 848.56
  A 51.37 50.79 22.4 0 1 719.38 915.10
  L 719.38 915.10
  A 51.37 50.79 22.4 0 1 652.53 942.48
  L 627.17 932.03
  A 0.70 0.70 0.0 0 1 626.79 931.11
  L 664.97 838.49
  Z"
/>
<path fill="#ffffff" d="
  M 358.22 920.55
  L 436.73 887.51
  Q 437.23 887.30 437.73 887.53
  L 442.08 889.56
  Q 442.68 889.83 442.51 890.46
  Q 442.22 891.63 442.39 892.84
  Q 442.54 893.88 441.56 894.29
  L 373.12 923.09
  A 0.65 0.65 0.0 0 0 372.77 923.94
  L 408.23 1008.55
  Q 408.48 1009.13 408.04 1009.59
  L 406.04 1011.69
  Q 405.65 1012.09 405.10 1011.99
  C 402.43 1011.47 400.49 1010.75 399.35 1008.02
  Q 382.37 967.55 365.43 927.08
  A 0.82 0.81 66.9 0 0 364.37 926.65
  L 353.99 930.97
  A 2.05 2.04 -0.4 0 0 352.88 932.09
  L 333.80 978.84
  Q 332.30 982.53 328.67 980.90
  L 327.86 980.53
  A 3.23 3.23 0.0 0 1 326.19 976.35
  L 371.58 865.26
  Q 373.06 861.63 376.77 862.91
  L 377.62 863.20
  A 3.00 3.00 0.0 0 1 379.42 867.17
  L 357.77 920.10
  A 0.34 0.34 0.0 0 0 358.22 920.55
  Z"
/>
<path fill="#ffffff" d="
  M 777.11 960.73
  L 723.79 938.96
  Q 723.27 938.75 722.86 939.14
  L 695.58 965.37
  Q 692.99 967.86 690.36 965.42
  L 689.72 964.83
  A 2.69 2.68 44.4 0 1 689.68 960.93
  L 777.11 876.24
  A 0.68 0.68 0.0 0 1 777.84 876.10
  L 782.47 877.97
  Q 782.95 878.17 782.96 878.69
  L 786.33 1000.03
  A 2.96 2.95 -1.6 0 1 783.45 1003.06
  L 782.69 1003.08
  Q 779.05 1003.18 778.94 999.54
  L 777.84 961.79
  Q 777.82 961.02 777.11 960.73
  Z
  M 729.44 932.68
  A 0.38 0.38 0.0 0 0 729.56 933.31
  L 777.21 952.75
  A 0.38 0.38 0.0 0 0 777.73 952.39
  L 776.10 888.28
  A 0.38 0.38 0.0 0 0 775.46 888.02
  L 729.44 932.68
  Z"
/>
<path fill="#191919" d="
  M 729.44 932.68
  L 775.46 888.02
  A 0.38 0.38 0.0 0 1 776.10 888.28
  L 777.73 952.39
  A 0.38 0.38 0.0 0 1 777.21 952.75
  L 729.56 933.31
  A 0.38 0.38 0.0 0 1 729.44 932.68
  Z"
/>
<path fill="#ffffff" d="
  M 631.33 1012.22
  L 663.97 980.54
  A 0.79 0.78 34.1 0 1 664.82 980.38
  L 670.02 982.50
  Q 670.55 982.71 670.56 983.28
  L 673.81 1110.16
  Q 673.86 1112.49 674.75 1110.33
  L 717.25 1006.25
  Q 718.72 1002.65 722.34 1004.07
  L 723.22 1004.42
  A 3.10 3.10 0.0 0 1 724.96 1008.48
  L 681.18 1115.64
  Q 680.97 1116.15 681.48 1116.36
  L 746.75 1143.03
  Q 747.42 1143.30 747.69 1142.64
  Q 769.45 1089.27 791.32 1035.83
  C 792.58 1032.75 795.88 1033.51 798.52 1035.22
  Q 798.97 1035.51 799.12 1036.02
  L 837.36 1171.67
  Q 837.65 1172.71 838.06 1171.71
  Q 858.15 1122.54 878.40 1072.91
  C 880.79 1067.07 883.88 1070.34 887.69 1071.62
  Q 889.46 1072.21 889.50 1072.23
  Q 910.76 1080.89 931.92 1089.52
  A 3.28 3.28 0.0 0 1 933.80 1093.55
  L 933.54 1094.37
  A 3.85 3.85 0.0 0 1 928.40 1096.75
  L 911.75 1089.88
  A 1.01 1.00 22.3 0 0 910.43 1090.43
  L 868.91 1192.08
  Q 868.61 1192.81 869.34 1193.11
  L 886.67 1200.15
  Q 887.18 1200.36 887.52 1200.80
  L 888.15 1201.61
  Q 888.51 1202.07 888.93 1201.67
  L 982.70 1110.79
  Q 983.07 1110.44 983.54 1110.62
  L 988.71 1112.66
  Q 989.32 1112.90 989.34 1113.56
  L 992.76 1247.25
  A 3.02 3.01 -1.0 0 1 989.77 1250.34
  L 988.84 1250.35
  Q 984.99 1250.38 984.87 1246.53
  L 983.63 1204.74
  A 1.06 1.06 0.0 0 0 982.97 1203.79
  L 924.24 1179.80
  A 1.15 1.14 -55.4 0 0 923.02 1180.03
  L 891.56 1210.27
  A 0.93 0.92 -57.6 0 1 890.64 1210.48
  Q 888.19 1209.69 886.15 1208.14
  Q 885.73 1207.83 885.22 1207.76
  Q 883.62 1207.54 882.99 1207.28
  Q 849.80 1193.78 840.74 1190.01
  C 839.64 1189.56 839.06 1188.77 837.65 1188.55
  C 835.24 1188.18 833.06 1187.26 832.37 1184.80
  Q 813.54 1117.62 794.68 1050.77
  Q 794.32 1049.52 793.83 1050.72
  Q 774.00 1099.28 753.99 1148.29
  C 752.48 1151.98 750.18 1154.58 746.37 1151.15
  Q 746.00 1150.82 745.53 1150.72
  Q 743.74 1150.33 742.04 1149.64
  Q 708.01 1135.84 674.10 1121.78
  Q 673.16 1121.39 672.30 1120.84
  Q 671.90 1120.59 671.43 1120.52
  Q 668.75 1120.18 666.49 1118.70
  Q 666.11 1118.46 666.10 1118.01
  L 664.88 1074.53
  A 1.03 1.02 -79.9 0 0 664.24 1073.61
  L 605.24 1049.51
  Q 604.77 1049.32 604.40 1049.67
  L 574.19 1078.74
  Q 571.34 1081.48 568.54 1078.69
  L 567.87 1078.02
  A 3.07 3.06 45.5 0 1 567.90 1073.64
  L 622.25 1020.99
  Q 624.78 1018.54 621.86 1020.50
  Q 612.21 1026.98 600.86 1025.84
  Q 595.49 1025.29 584.11 1020.66
  Q 567.46 1013.87 550.87 1007.07
  Q 550.35 1006.85 550.14 1007.38
  L 529.37 1058.33
  Q 527.82 1062.12 524.02 1060.59
  L 523.13 1060.23
  A 2.93 2.93 0.0 0 1 521.51 1056.40
  L 536.55 1019.73
  Q 537.69 1016.93 535.71 1019.22
  C 509.32 1049.72 461.18 1047.49 437.08 1015.34
  C 414.54 985.29 423.28 942.12 455.09 922.72
  C 477.44 909.09 505.53 910.47 526.43 926.18
  C 543.10 938.70 553.00 959.35 551.56 980.51
  Q 551.37 983.33 552.44 980.71
  L 567.25 944.49
  A 3.61 3.60 -67.9 0 1 571.94 942.51
  Q 591.79 950.59 612.10 958.90
  Q 620.84 962.48 624.79 965.60
  Q 638.54 976.44 637.25 995.51
  Q 636.66 1004.24 630.84 1012.02
  Q 630.82 1012.04 630.84 1012.06
  L 631.04 1012.23
  Q 631.19 1012.35 631.33 1012.22
  Z
  M 543.80 977.14
  A 55.71 55.71 0.0 0 0 488.09 921.43
  A 55.71 55.71 0.0 0 0 432.38 977.14
  A 55.71 55.71 0.0 0 0 488.09 1032.85
  A 55.71 55.71 0.0 0 0 543.80 977.14
  Z
  M 572.70 952.08
  L 553.57 998.95
  A 0.67 0.67 0.0 0 0 553.94 999.82
  L 593.31 1015.89
  A 26.23 25.91 22.2 0 0 627.38 1001.81
  L 627.43 1001.68
  A 26.23 25.91 22.2 0 0 612.94 967.78
  L 573.57 951.71
  A 0.67 0.67 0.0 0 0 572.70 952.08
  Z
  M 611.37 1042.76
  A 0.30 0.30 0.0 0 0 611.46 1043.25
  L 664.27 1064.80
  A 0.30 0.30 0.0 0 0 664.68 1064.52
  L 662.77 993.72
  A 0.30 0.30 0.0 0 0 662.26 993.52
  L 611.37 1042.76
  Z
  M 903.1765 1087.0561
  A 0.60 0.60 0.0 0 0 902.8477 1086.2738
  L 885.3117 1079.1175
  A 0.60 0.60 0.0 0 0 884.5295 1079.4463
  L 842.8235 1181.6439
  A 0.60 0.60 0.0 0 0 843.1523 1182.4262
  L 860.6883 1189.5825
  A 0.60 0.60 0.0 0 0 861.4705 1189.2537
  L 903.1765 1087.0561
  Z
  M 930.22 1172.91
  A 0.35 0.35 0.0 0 0 930.33 1173.49
  L 982.95 1194.96
  A 0.35 0.35 0.0 0 0 983.44 1194.63
  L 981.56 1124.02
  A 0.35 0.35 0.0 0 0 980.97 1123.77
  L 930.22 1172.91
  Z"
/>
<path fill="#ffffff" d="
  M 839.56 1018.67
  C 861.62 1027.44 887.73 1019.73 900.46 999.89
  Q 902.41 996.87 905.13 999.22
  L 905.53 999.56
  Q 908.25 1001.91 906.11 1004.80
  Q 887.99 1029.39 857.75 1029.56
  C 823.23 1029.76 796.70 998.06 801.16 964.36
  C 806.98 920.43 857.98 898.52 893.54 925.49
  C 910.60 938.43 919.45 960.87 915.42 982.12
  Q 914.90 984.90 912.09 984.58
  L 910.26 984.37
  Q 907.45 984.05 908.11 981.30
  Q 909.74 974.56 909.00 967.24
  C 907.14 948.88 896.23 933.41 879.73 925.59
  C 852.24 912.56 819.49 927.77 810.26 956.65
  C 802.28 981.61 815.31 1009.03 839.56 1018.67
  Z"
/>
<circle fill="#191919" cx="488.09" cy="977.14" r="55.71"/>
<path fill="#191919" d="
  M 572.70 952.08
  A 0.67 0.67 0.0 0 1 573.57 951.71
  L 612.94 967.78
  A 26.23 25.91 22.2 0 1 627.43 1001.68
  L 627.38 1001.81
  A 26.23 25.91 22.2 0 1 593.31 1015.89
  L 553.94 999.82
  A 0.67 0.67 0.0 0 1 553.57 998.95
  L 572.70 952.08
  Z"
/>
<path fill="#ffffff" d="
  M 958.79 1009.73
  C 965.27 993.83 972.00 977.98 978.19 961.97
  C 979.93 957.45 987.13 959.55 984.88 965.06
  Q 974.18 991.26 963.44 1017.44
  Q 959.75 1026.42 952.18 1033.85
  C 936.71 1049.04 916.12 1054.22 894.74 1048.77
  Q 891.83 1048.02 889.69 1046.79
  A 3.28 3.28 0.0 0 1 888.32 1042.65
  L 888.52 1042.19
  Q 889.77 1039.30 892.71 1040.42
  Q 908.04 1046.28 922.25 1042.52
  Q 948.24 1035.64 958.79 1009.73
  Z"
/>
<path fill="#ffffff" d="
  M 1029.93 1063.94
  L 976.94 1042.30
  A 1.47 1.46 -55.7 0 0 975.37 1042.60
  L 947.67 1069.20
  A 2.89 2.89 0.0 0 1 943.58 1069.11
  L 943.05 1068.55
  Q 940.57 1065.94 943.16 1063.43
  L 1029.67 979.66
  Q 1030.15 979.19 1030.78 979.43
  L 1035.51 981.25
  Q 1035.85 981.38 1035.86 981.74
  L 1039.07 1103.47
  Q 1039.14 1106.25 1036.36 1106.32
  L 1035.38 1106.34
  Q 1031.94 1106.43 1031.84 1103.00
  L 1030.69 1065.03
  Q 1030.67 1064.24 1029.93 1063.94
  Z
  M 982.20 1035.86
  A 0.38 0.38 0.0 0 0 982.32 1036.49
  L 1029.97 1055.93
  A 0.38 0.38 0.0 0 0 1030.49 1055.57
  L 1028.80 991.61
  A 0.38 0.38 0.0 0 0 1028.16 991.34
  L 982.20 1035.86
  Z"
/>
<path fill="#191919" d="
  M 982.20 1035.86
  L 1028.16 991.34
  A 0.38 0.38 0.0 0 1 1028.80 991.61
  L 1030.49 1055.57
  A 0.38 0.38 0.0 0 1 1029.97 1055.93
  L 982.32 1036.49
  A 0.38 0.38 0.0 0 1 982.20 1035.86
  Z"
/>
<path fill="#191919" d="
  M 611.37 1042.76
  L 662.26 993.52
  A 0.30 0.30 0.0 0 1 662.77 993.72
  L 664.68 1064.52
  A 0.30 0.30 0.0 0 1 664.27 1064.80
  L 611.46 1043.25
  A 0.30 0.30 0.0 0 1 611.37 1042.76
  Z"
/>
<path fill="#ffffff" d="
  M 355.77 1034.02
  Q 355.60 1033.41 355.36 1034.00
  Q 336.40 1080.49 317.46 1126.76
  Q 316.58 1128.91 313.81 1128.90
  A 1.26 1.21 61.4 0 1 313.11 1128.68
  C 311.20 1127.40 308.85 1126.90 307.36 1126.29
  Q 288.48 1118.60 269.20 1110.73
  Q 265.89 1109.38 267.08 1106.01
  L 267.40 1105.08
  A 2.75 2.75 0.0 0 1 271.04 1103.45
  L 287.73 1110.32
  A 0.30 0.29 22.3 0 0 288.12 1110.16
  L 326.84 1015.42
  A 0.74 0.74 0.0 0 0 326.43 1014.45
  L 310.77 1008.06
  A 3.51 3.51 0.0 0 1 308.93 1003.28
  L 309.30 1002.53
  A 3.07 3.06 24.0 0 1 313.21 1001.03
  L 359.44 1020.00
  A 0.98 0.97 -86.7 0 1 359.99 1020.62
  L 395.34 1145.97
  Q 395.77 1147.51 396.38 1146.03
  L 433.90 1054.13
  A 3.43 3.42 -67.7 0 1 438.37 1052.25
  L 482.54 1070.21
  Q 486.00 1071.62 484.55 1075.07
  L 484.22 1075.85
  A 2.86 2.85 22.5 0 1 480.51 1077.38
  L 463.91 1070.60
  A 0.38 0.38 0.0 0 0 463.41 1070.80
  L 424.75 1165.44
  A 0.80 0.80 0.0 0 0 425.19 1166.49
  L 440.58 1172.69
  A 3.69 3.68 21.4 0 1 442.65 1177.41
  L 442.35 1178.22
  A 2.93 2.92 -68.4 0 1 438.50 1179.89
  L 393.15 1161.29
  A 3.40 1.98 12.1 0 1 391.24 1159.55
  L 355.77 1034.02
  Z
  M 351.0716 1024.9281
  A 0.39 0.39 0.0 0 0 350.8579 1024.4196
  L 334.3033 1017.6639
  A 0.39 0.39 0.0 0 0 333.7949 1017.8776
  L 295.0284 1112.8719
  A 0.39 0.39 0.0 0 0 295.2421 1113.3804
  L 311.7967 1120.1361
  A 0.39 0.39 0.0 0 0 312.3051 1119.9224
  L 351.0716 1024.9281
  Z
  M 456.5643 1067.9525
  A 0.33 0.33 0.0 0 0 456.3834 1067.5223
  L 439.7178 1060.7212
  A 0.33 0.33 0.0 0 0 439.2875 1060.9020
  L 400.4757 1156.0075
  A 0.33 0.33 0.0 0 0 400.6566 1156.4377
  L 417.3222 1163.2388
  A 0.33 0.33 0.0 0 0 417.7525 1163.0580
  L 456.5643 1067.9525
  Z"
/>
<rect fill="#191919" x="-9.33" y="-51.69" transform="translate(323.05,1068.90) rotate(22.2)" width="18.66" height="103.38" rx="0.39"/>
<rect fill="#191919" x="-9.33" y="-51.69" transform="translate(428.52,1111.98) rotate(22.2)" width="18.66" height="103.38" rx="0.33"/>
<rect fill="#191919" x="-10.07" y="-55.79" transform="translate(873.00,1134.35) rotate(22.2)" width="20.14" height="111.58" rx="0.60"/>
<path fill="#ffffff" d="
  M 480.57 1188.92
  C 503.38 1200.88 533.10 1193.20 547.11 1171.36
  Q 548.75 1168.80 551.16 1170.66
  L 552.24 1171.50
  Q 554.64 1173.37 552.98 1175.91
  C 538.33 1198.25 509.74 1207.13 484.83 1198.70
  C 453.10 1187.97 437.07 1152.29 449.52 1120.96
  C 467.39 1075.95 529.59 1070.74 554.50 1112.19
  Q 565.19 1129.98 562.44 1152.25
  Q 562.08 1155.15 559.86 1155.99
  C 558.22 1156.60 556.62 1155.59 555.08 1154.91
  Q 554.60 1154.70 554.69 1154.18
  Q 559.80 1126.28 540.77 1106.45
  C 527.47 1092.59 506.49 1087.78 488.40 1093.74
  C 444.78 1108.12 440.00 1167.66 480.57 1188.92
  Z"
/>
<path fill="#191919" d="
  M 930.22 1172.91
  L 980.97 1123.77
  A 0.35 0.35 0.0 0 1 981.56 1124.02
  L 983.44 1194.63
  A 0.35 0.35 0.0 0 1 982.95 1194.96
  L 930.33 1173.49
  A 0.35 0.35 0.0 0 1 930.22 1172.91
  Z"
/>
<path fill="#ffffff" d="
  M 607.75 1178.16
  C 614.00 1162.89 620.57 1147.64 626.43 1132.23
  C 627.61 1129.11 635.26 1130.35 632.90 1136.14
  Q 622.40 1161.89 611.86 1187.61
  C 599.78 1217.10 566.42 1230.70 536.94 1220.10
  Q 533.44 1218.84 534.59 1215.31
  L 534.86 1214.49
  A 2.77 2.77 0.0 0 1 538.51 1212.77
  C 560.57 1221.47 585.74 1213.94 599.32 1194.98
  Q 602.94 1189.93 607.75 1178.16
  Z"
/>
<path fill="#ffffff" d="
  M 664.31 1231.01
  L 610.05 1208.87
  A 1.17 1.16 -55.6 0 0 608.80 1209.11
  L 581.03 1235.84
  Q 578.40 1238.38 575.81 1235.79
  L 575.25 1235.24
  Q 573.14 1233.14 575.28 1231.07
  L 664.18 1144.86
  Q 664.59 1144.47 665.10 1144.70
  L 670.08 1146.90
  A 0.42 0.41 11.9 0 1 670.32 1147.26
  L 673.52 1271.26
  Q 673.59 1274.19 670.67 1274.21
  L 669.75 1274.21
  Q 666.28 1274.24 666.17 1270.76
  L 665.04 1232.07
  A 1.18 1.17 -79.7 0 0 664.31 1231.01
  Z
  M 615.55 1202.41
  A 0.36 0.36 0.0 0 0 615.67 1203.00
  L 664.40 1222.89
  A 0.36 0.36 0.0 0 0 664.90 1222.54
  L 663.11 1157.26
  A 0.36 0.36 0.0 0 0 662.50 1157.01
  L 615.55 1202.41
  Z"
/>
<path fill="#ffffff" d="
  M 843.55 1327.03
  L 908.51 1244.68
  Q 908.83 1244.29 909.29 1244.48
  L 914.15 1246.55
  Q 914.75 1246.80 914.69 1247.45
  L 904.45 1351.81
  Q 904.32 1353.13 905.12 1352.08
  L 967.71 1270.24
  Q 969.38 1268.06 971.47 1269.83
  L 972.84 1270.99
  Q 974.97 1272.78 973.28 1275.00
  L 901.87 1368.45
  Q 901.51 1368.93 900.95 1368.71
  L 896.20 1366.89
  A 0.82 0.80 -76.8 0 1 895.69 1366.05
  L 905.88 1261.02
  Q 905.98 1259.91 905.30 1260.78
  L 840.25 1343.24
  A 0.85 0.85 0.0 0 1 839.27 1343.51
  L 834.28 1341.54
  Q 833.96 1341.41 834.00 1341.07
  L 847.09 1225.54
  A 0.36 0.36 0.0 0 0 846.54 1225.19
  L 789.67 1260.24
  Q 789.04 1260.63 788.77 1261.31
  L 768.70 1310.49
  Q 767.31 1313.91 763.83 1312.65
  L 763.02 1312.35
  A 2.92 2.92 0.0 0 1 761.31 1308.50
  L 781.49 1259.23
  A 4.80 4.76 49.4 0 0 781.71 1256.25
  L 765.96 1192.77
  Q 765.82 1192.23 765.29 1192.39
  C 764.12 1192.75 763.48 1192.98 762.25 1192.47
  Q 745.84 1185.76 729.48 1179.07
  A 0.77 0.77 0.0 0 0 728.48 1179.49
  L 688.38 1277.66
  Q 687.01 1280.99 683.62 1279.78
  L 682.86 1279.50
  A 2.85 2.85 0.0 0 1 681.18 1275.74
  L 721.73 1176.47
  A 0.53 0.52 22.4 0 0 721.44 1175.79
  L 688.08 1162.17
  A 2.89 2.88 -67.3 0 1 686.52 1158.36
  L 686.85 1157.57
  Q 688.27 1154.27 691.60 1155.63
  Q 727.95 1170.44 764.73 1185.48
  C 765.54 1185.81 766.90 1187.04 767.49 1187.08
  Q 770.14 1187.24 772.29 1188.70
  Q 772.71 1188.99 772.83 1189.48
  L 788.28 1251.49
  Q 788.44 1252.14 789.01 1251.79
  L 843.66 1218.20
  Q 844.04 1217.97 844.48 1218.08
  Q 847.03 1218.71 849.04 1220.36
  Q 849.47 1220.71 850.03 1220.77
  Q 852.30 1220.98 854.34 1222.07
  Q 854.77 1222.30 854.71 1222.78
  L 842.93 1326.78
  Q 842.79 1327.99 843.55 1327.03
  Z"
/>
<path fill="#191919" d="
  M 615.55 1202.41
  L 662.50 1157.01
  A 0.36 0.36 0.0 0 1 663.11 1157.26
  L 664.90 1222.54
  A 0.36 0.36 0.0 0 1 664.40 1222.89
  L 615.67 1203.00
  A 0.36 0.36 0.0 0 1 615.55 1202.41
  Z"
/>
</svg>
